<?xml version="1.0" standalone="no"?>
<!DOCTYPE svg PUBLIC "-//W3C//DTD SVG 20010904//EN"
 "http://www.w3.org/TR/2001/REC-SVG-20010904/DTD/svg10.dtd">
<svg version="1.0" xmlns="http://www.w3.org/2000/svg"
 width="1002.000000pt" height="1002.000000pt" viewBox="0 0 1002.000000 1002.000000"
 preserveAspectRatio="xMidYMid meet">
<metadata>
Created by potrace 1.14, written by Peter Selinger 2001-2017
</metadata>
<g transform="translate(0.000000,1002.000000) scale(0.100000,-0.100000)"
fill="#000000" stroke="none">
<path d="M4808 10014 c-2 -1 -50 -5 -108 -8 -58 -4 -123 -9 -145 -11 -97 -10
-154 -17 -210 -25 -33 -5 -78 -12 -100 -15 -394 -59 -828 -189 -1261 -378
l-81 -35 -39 37 c-307 281 -539 405 -747 398 -155 -5 -198 -84 -121 -225 71
-130 231 -275 414 -374 44 -24 80 -47 80 -51 0 -4 -14 -16 -31 -25 -17 -9 -92
-57 -168 -107 -358 -235 -690 -521 -971 -835 -47 -52 -87 -97 -90 -100 -13
-12 -200 -251 -247 -315 -240 -330 -479 -771 -620 -1145 -107 -284 -224 -712
-257 -945 -4 -23 -8 -50 -10 -61 -2 -12 -7 -45 -11 -74 -4 -29 -8 -61 -10 -72
-2 -10 -7 -49 -10 -86 -3 -37 -7 -80 -10 -97 -24 -191 -24 -682 1 -910 13
-122 31 -274 39 -315 1 -8 6 -35 9 -60 77 -504 304 -1147 565 -1605 35 -60 75
-130 89 -155 27 -48 230 -352 241 -360 3 -3 32 -40 64 -82 168 -226 523 -605
700 -748 l68 -55 -43 -18 c-132 -56 -176 -142 -203 -397 -24 -228 -37 -272
-128 -450 -44 -85 -83 -168 -88 -184 -10 -34 3 -64 34 -75 52 -19 221 59 438
204 113 75 361 256 379 275 12 14 204 166 224 179 20 12 26 11 66 -14 110 -69
380 -206 566 -285 277 -119 590 -220 869 -280 123 -27 133 -29 174 -36 18 -3
43 -8 55 -10 24 -5 51 -9 121 -20 66 -9 69 -10 145 -19 36 -4 72 -9 82 -10
133 -26 904 -26 1038 0 8 2 44 6 80 10 36 4 72 8 80 10 8 1 40 6 70 10 55 7
74 10 120 20 14 2 41 7 60 10 294 48 799 206 1109 347 111 50 385 189 401 203
8 8 17 13 20 12 14 -5 346 209 500 322 73 53 248 191 281 221 9 8 47 42 85 75
199 172 473 469 660 715 91 120 88 115 190 270 42 63 85 127 95 142 10 15 19
30 19 32 0 3 19 36 41 73 116 189 286 555 383 824 39 110 126 394 140 461 3
13 17 74 31 136 14 62 27 128 30 145 3 18 12 68 20 112 14 81 17 104 32 210
10 77 11 1161 0 1240 -61 467 -184 917 -367 1350 -46 109 -193 407 -231 471
-14 21 -31 52 -39 68 -30 59 -189 302 -279 426 -204 282 -450 556 -701 779
-52 47 -97 87 -100 90 -3 4 -50 42 -105 87 -722 582 -1577 949 -2490 1069 -60
8 -139 17 -175 20 -36 3 -92 8 -125 11 -55 6 -582 14 -587 8z m437 -239 c94
-4 184 -8 200 -10 17 -2 57 -6 90 -10 127 -12 244 -29 440 -65 439 -81 969
-278 1400 -519 117 -66 410 -253 460 -294 11 -8 52 -39 90 -68 189 -142 520
-447 671 -619 121 -139 161 -188 258 -317 364 -486 625 -1017 785 -1598 17
-61 32 -121 34 -135 3 -14 10 -43 15 -65 22 -80 64 -309 77 -415 2 -25 7 -61
9 -80 36 -296 41 -821 11 -1045 -3 -16 -9 -66 -14 -110 -25 -197 -23 -185 -35
-235 -3 -14 -8 -41 -10 -60 -3 -19 -17 -87 -31 -150 -117 -518 -312 -1002
-584 -1448 -68 -113 -262 -396 -281 -412 -3 -3 -21 -25 -40 -50 -156 -204
-427 -489 -635 -665 -38 -33 -72 -62 -75 -65 -52 -53 -450 -340 -471 -340 -5
0 -9 -4 -9 -10 0 -5 -4 -10 -8 -10 -5 0 -60 -31 -123 -68 -152 -91 -315 -176
-474 -246 -71 -32 -144 -64 -162 -72 -230 -103 -749 -247 -1035 -289 -52 -7
-108 -16 -136 -20 -13 -2 -51 -7 -85 -10 -34 -3 -80 -8 -102 -10 -210 -22
-747 -22 -875 -1 -14 3 -56 7 -95 11 -38 3 -77 8 -85 10 -8 2 -37 6 -64 10
-49 6 -238 39 -286 50 -14 3 -35 7 -48 9 -12 3 -30 7 -40 10 -9 3 -29 7 -43
10 -98 17 -396 107 -584 178 -204 76 -538 233 -673 315 l-33 20 53 44 c29 24
55 46 58 49 3 3 34 30 70 60 36 30 67 57 70 60 3 3 48 41 100 85 52 44 97 82
100 86 3 3 73 63 155 134 83 70 175 149 205 175 182 157 155 134 261 222 189
158 313 262 328 277 9 9 52 45 96 81 44 35 114 94 155 130 41 37 122 104 179
150 57 45 111 90 120 99 10 9 46 41 81 71 155 134 379 354 698 686 157 163
261 260 331 307 27 18 131 53 185 63 17 2 47 9 66 14 19 5 71 16 115 25 60 12
334 77 460 109 179 45 540 175 735 264 171 78 317 132 358 132 25 0 26 -1 7
-13 -11 -8 -56 -33 -100 -57 -140 -76 -148 -81 -249 -147 -112 -75 -245 -179
-426 -333 -69 -59 -156 -128 -195 -154 -69 -46 -246 -140 -315 -166 -19 -7
-51 -19 -70 -27 -87 -35 -184 -66 -290 -93 -226 -57 -318 -95 -381 -157 -40
-38 -56 -70 -89 -176 -26 -87 -74 -166 -215 -355 -62 -84 -120 -172 -128 -195
-18 -56 -6 -104 31 -118 41 -16 123 -4 211 31 136 53 242 115 626 365 109 71
276 161 481 261 118 57 216 104 218 104 2 0 50 22 107 49 57 27 154 71 214 99
126 58 340 158 435 205 60 29 339 179 378 202 10 6 44 25 77 44 176 101 375
250 488 366 109 111 233 315 251 411 26 144 26 198 0 333 -1 8 -17 43 -35 79
-60 123 -194 231 -371 301 -78 31 -240 75 -313 86 -23 3 -50 7 -62 9 -12 3
-43 7 -70 11 -26 4 -58 8 -70 10 -158 24 -449 24 -568 0 -11 -3 -36 -7 -55 -9
-164 -24 -484 -109 -688 -185 -46 -17 -86 -31 -90 -31 -9 0 58 43 318 207 310
195 299 187 382 298 251 334 450 720 482 930 12 80 20 171 20 230 -1 203 -81
425 -221 610 -78 104 -244 273 -353 360 -41 33 -80 65 -86 70 -19 17 -67 53
-351 259 -152 111 -278 206 -280 211 -1 6 37 25 85 44 106 40 304 138 369 182
125 84 142 174 60 329 -68 128 -257 344 -382 438 -304 226 -709 225 -850 -2
-28 -46 -30 -56 -30 -145 0 -101 4 -117 62 -234 53 -109 148 -241 248 -347 57
-61 174 -170 213 -199 44 -33 41 -49 -10 -56 -104 -15 -172 -6 -278 38 -108
44 -208 97 -405 212 -49 29 -106 62 -125 73 -19 11 -134 77 -255 146 -355 205
-601 317 -895 410 -132 42 -294 84 -345 91 -11 1 -56 10 -100 19 -102 21 -113
23 -172 32 -26 5 -50 9 -53 9 -3 1 -23 5 -45 10 -22 4 -62 26 -90 47 -27 22
-64 51 -81 64 -18 14 -46 37 -64 53 l-32 27 119 48 c186 76 497 181 593 200
14 3 63 14 110 26 124 31 210 49 310 65 19 3 46 7 60 10 14 2 49 7 79 10 30 3
57 7 60 9 3 2 42 7 86 10 44 4 96 9 115 11 19 3 114 7 210 11 96 3 177 8 179
10 2 2 13 2 25 -1 12 -2 98 -7 191 -10z m-2409 -569 c82 -25 311 -71 397 -80
61 -7 75 -15 244 -138 79 -57 172 -123 208 -148 36 -25 114 -79 173 -120 59
-42 258 -177 442 -301 184 -124 371 -251 415 -282 44 -31 133 -93 199 -139
714 -500 1161 -921 1326 -1248 54 -106 72 -168 84 -277 10 -95 -45 -244 -125
-336 -49 -57 -183 -167 -248 -204 -25 -15 -53 -32 -61 -39 -8 -7 -91 -60 -184
-119 -200 -126 -260 -170 -347 -261 -159 -166 -306 -408 -464 -764 -45 -101
-95 -208 -199 -422 -42 -87 -76 -163 -76 -171 0 -7 -4 -17 -8 -22 -5 -6 -18
-32 -30 -60 -11 -27 -48 -108 -81 -178 -34 -71 -61 -130 -61 -132 0 -6 -107
-230 -178 -372 -144 -290 -208 -379 -350 -484 -49 -37 -90 -59 -337 -173 -200
-94 -390 -244 -531 -420 -56 -71 -304 -428 -304 -440 0 -2 -29 -50 -64 -107
-124 -204 -209 -335 -264 -413 -58 -80 -163 -186 -185 -186 -17 0 -199 143
-332 260 -168 148 -339 322 -505 516 -286 331 -591 833 -754 1239 -27 66 -52
129 -56 140 -22 53 -70 193 -70 203 0 7 -4 20 -9 30 -16 29 -102 335 -117 417
-2 11 -10 52 -18 90 -19 89 -34 176 -42 240 -3 27 -7 52 -9 55 -2 3 -6 41 -10
85 -4 44 -9 88 -11 98 -24 128 -24 813 0 944 2 10 7 47 11 83 11 106 22 184
35 255 5 28 12 66 15 85 8 48 76 343 82 352 2 5 6 16 8 25 10 50 60 206 106
334 248 692 640 1299 1171 1814 74 72 147 141 163 155 279 238 497 394 785
561 63 37 115 67 116 68 0 1 23 -6 50 -13z"/>
</g>
</svg>
